<svg width="230" height="145" viewBox="0 0 230 145" fill="none" xmlns="http://www.w3.org/2000/svg">
<ellipse cx="115" cy="110" rx="115" ry="35" fill="#E212CD"/>
<rect y="35" width="230" height="75" fill="#E212CD"/>
<ellipse cx="115" cy="35" rx="115" ry="35" fill="#12E28B"/>
<ellipse cx="115" cy="93.5" rx="115" ry="34.5" fill="#9312E2"/>
<ellipse cx="115" cy="92.5" rx="115" ry="34.5" fill="#9312E2"/>
<ellipse cx="115" cy="91.5" rx="115" ry="34.5" fill="#9312E2"/>
<ellipse cx="115" cy="90.5" rx="115" ry="34.5" fill="#9312E2"/>
<ellipse cx="115" cy="90.5" rx="115" ry="34.5" fill="#9312E2"/>
<ellipse cx="115" cy="89.5" rx="115" ry="34.5" fill="#9312E2"/>
<ellipse cx="115" cy="90.5" rx="115" ry="34.5" fill="#9312E2"/>
<ellipse cx="115" cy="89.5" rx="115" ry="34.5" fill="#9312E2"/>
<ellipse cx="115" cy="88.5" rx="115" ry="34.5" fill="#9312E2"/>
<ellipse cx="115" cy="87.5" rx="115" ry="34.5" fill="#9312E2"/>
<ellipse cx="115" cy="87.5" rx="115" ry="34.5" fill="#9312E2"/>
<ellipse cx="115" cy="86.5" rx="115" ry="34.5" fill="#9312E2"/>
<ellipse cx="115" cy="85.5" rx="115" ry="34.5" fill="#9312E2"/>
<ellipse cx="115" cy="84.5" rx="115" ry="34.5" fill="#9312E2"/>
<ellipse cx="115" cy="83.5" rx="115" ry="34.5" fill="#9312E2"/>
<ellipse cx="115" cy="82.5" rx="115" ry="34.5" fill="#9312E2"/>
<ellipse cx="115" cy="82.5" rx="115" ry="34.5" fill="#9312E2"/>
<ellipse cx="115" cy="81.5" rx="115" ry="34.5" fill="#9312E2"/>
<ellipse cx="115" cy="82.5" rx="115" ry="34.5" fill="#9312E2"/>
<ellipse cx="115" cy="81.5" rx="115" ry="34.5" fill="#9312E2"/>
<ellipse cx="115" cy="80.5" rx="115" ry="34.5" fill="#9312E2"/>
<ellipse cx="115" cy="79.5" rx="115" ry="34.5" fill="#9312E2"/>
<ellipse cx="115" cy="79.5" rx="115" ry="34.5" fill="#9312E2"/>
<ellipse cx="115" cy="78.5" rx="115" ry="34.5" fill="#9312E2"/>
<ellipse cx="115" cy="77.5" rx="115" ry="34.5" fill="#E212CD"/>
<ellipse cx="115" cy="76.5" rx="115" ry="34.5" fill="#E212CD"/>
<ellipse cx="115" cy="75.5" rx="115" ry="34.5" fill="#E212CD"/>
<ellipse cx="115" cy="74.5" rx="115" ry="34.5" fill="#E212CD"/>
<ellipse cx="115" cy="74.5" rx="115" ry="34.5" fill="#E212CD"/>
<ellipse cx="115" cy="73.5" rx="115" ry="34.5" fill="#E212CD"/>
<ellipse cx="115" cy="74.5" rx="115" ry="34.5" fill="#E212CD"/>
<ellipse cx="115" cy="73.5" rx="115" ry="34.5" fill="#E212CD"/>
<ellipse cx="115" cy="72.5" rx="115" ry="34.5" fill="#E212CD"/>
<ellipse cx="115" cy="71.5" rx="115" ry="34.5" fill="#E212CD"/>
<ellipse cx="115" cy="71.5" rx="115" ry="34.5" fill="#E212CD"/>
<ellipse cx="115" cy="70.5" rx="115" ry="34.5" fill="#E212CD"/>
<ellipse cx="115" cy="69.5" rx="115" ry="34.5" fill="#E212CD"/>
<ellipse cx="115" cy="68.5" rx="115" ry="34.5" fill="#E212CD"/>
<ellipse cx="115" cy="67.5" rx="115" ry="34.5" fill="#E212CD"/>
<ellipse cx="115" cy="66.5" rx="115" ry="34.5" fill="#E212CD"/>
<ellipse cx="115" cy="66.5" rx="115" ry="34.5" fill="#E212CD"/>
<ellipse cx="115" cy="65.5" rx="115" ry="34.5" fill="#E212CD"/>
<ellipse cx="115" cy="66.5" rx="115" ry="34.5" fill="#E212CD"/>
<ellipse cx="115" cy="65.5" rx="115" ry="34.5" fill="#E212CD"/>
<ellipse cx="115" cy="64.5" rx="115" ry="34.5" fill="#E212CD"/>
<ellipse cx="115" cy="63.5" rx="115" ry="34.5" fill="#E212CD"/>
<ellipse cx="115" cy="63.5" rx="115" ry="34.5" fill="#E212CD"/>
<ellipse cx="115" cy="62.5" rx="115" ry="34.5" fill="#E212CD"/>
<ellipse cx="115" cy="65.5" rx="115" ry="34.5" fill="#9312E2"/>
<ellipse cx="115" cy="64.5" rx="115" ry="34.5" fill="#9312E2"/>
<ellipse cx="115" cy="63.5" rx="115" ry="34.5" fill="#9312E2"/>
<ellipse cx="115" cy="62.5" rx="115" ry="34.5" fill="#9312E2"/>
<ellipse cx="115" cy="62.5" rx="115" ry="34.5" fill="#9312E2"/>
<ellipse cx="115" cy="61.5" rx="115" ry="34.5" fill="#9312E2"/>
<ellipse cx="115" cy="62.5" rx="115" ry="34.5" fill="#9312E2"/>
<ellipse cx="115" cy="61.5" rx="115" ry="34.5" fill="#9312E2"/>
<ellipse cx="115" cy="60.5" rx="115" ry="34.5" fill="#9312E2"/>
<ellipse cx="115" cy="59.5" rx="115" ry="34.5" fill="#9312E2"/>
<ellipse cx="115" cy="59.5" rx="115" ry="34.5" fill="#9312E2"/>
<ellipse cx="115" cy="58.5" rx="115" ry="34.5" fill="#9312E2"/>
<ellipse cx="115" cy="57.5" rx="115" ry="34.5" fill="#9312E2"/>
<ellipse cx="115" cy="56.5" rx="115" ry="34.5" fill="#9312E2"/>
<ellipse cx="115" cy="55.5" rx="115" ry="34.5" fill="#9312E2"/>
<ellipse cx="115" cy="54.5" rx="115" ry="34.5" fill="#9312E2"/>
<ellipse cx="115" cy="54.5" rx="115" ry="34.5" fill="#9312E2"/>
<ellipse cx="115" cy="53.5" rx="115" ry="34.5" fill="#9312E2"/>
<ellipse cx="115" cy="54.5" rx="115" ry="34.5" fill="#9312E2"/>
<ellipse cx="115" cy="53.5" rx="115" ry="34.5" fill="#9312E2"/>
<ellipse cx="115" cy="52.5" rx="115" ry="34.5" fill="#9312E2"/>
<ellipse cx="115" cy="51.5" rx="115" ry="34.5" fill="#9312E2"/>
<ellipse cx="115" cy="51.5" rx="115" ry="34.5" fill="#9312E2"/>
<ellipse cx="115" cy="50.5" rx="115" ry="34.5" fill="#9312E2"/>
<ellipse cx="115" cy="49.5" rx="115" ry="34.5" fill="#E212CD"/>
<ellipse cx="115" cy="48.5" rx="115" ry="34.5" fill="#E212CD"/>
<ellipse cx="115" cy="47.5" rx="115" ry="34.5" fill="#E212CD"/>
<ellipse cx="115" cy="46.5" rx="115" ry="34.5" fill="#E212CD"/>
<ellipse cx="115" cy="46.5" rx="115" ry="34.5" fill="#E212CD"/>
<ellipse cx="115" cy="45.5" rx="115" ry="34.5" fill="#E212CD"/>
<ellipse cx="115" cy="46.5" rx="115" ry="34.5" fill="#E212CD"/>
<ellipse cx="115" cy="45.5" rx="115" ry="34.5" fill="#E212CD"/>
<ellipse cx="115" cy="44.5" rx="115" ry="34.5" fill="#E212CD"/>
<ellipse cx="115" cy="43.5" rx="115" ry="34.5" fill="#E212CD"/>
<ellipse cx="115" cy="43.5" rx="115" ry="34.5" fill="#E212CD"/>
<ellipse cx="115" cy="42.5" rx="115" ry="34.5" fill="#E212CD"/>
<ellipse cx="115" cy="41.5" rx="115" ry="34.5" fill="#E212CD"/>
<ellipse cx="115" cy="40.5" rx="115" ry="34.5" fill="#E212CD"/>
<ellipse cx="115" cy="39.5" rx="115" ry="34.5" fill="#E212CD"/>
<ellipse cx="115" cy="38.5" rx="115" ry="34.5" fill="#E212CD"/>
<ellipse cx="115" cy="38.5" rx="115" ry="34.5" fill="#E212CD"/>
<ellipse cx="115" cy="37.5" rx="115" ry="34.5" fill="#E212CD"/>
<ellipse cx="115" cy="38.5" rx="115" ry="34.5" fill="#E212CD"/>
<ellipse cx="115" cy="37.5" rx="115" ry="34.5" fill="#E212CD"/>
<ellipse cx="115" cy="36.5" rx="115" ry="34.5" fill="#E212CD"/>
<ellipse cx="115" cy="35.5" rx="115" ry="34.5" fill="#E212CD"/>
<ellipse cx="115" cy="35.5" rx="115" ry="34.5" fill="#E212CD"/>
<ellipse id="cake-top-layer" cx="115" cy="34.5" rx="115" ry="34.5" fill="#E212CD"/>
</svg>
