<svg width="368" height="368" viewBox="0 0 368 368" fill="none" xmlns="http://www.w3.org/2000/svg">
<g id="Frame 1" filter="url(#filter0_d_2_3)">
<rect x="4.5" y="0.5" width="359" height="359" stroke="black"/>
<g id="Group 1">
<ellipse id="Ellipse 1" cx="183.5" cy="219.5" rx="114.5" ry="34.5" fill="#9312E2"/>
<ellipse id="Ellipse 3" cx="183.5" cy="218.5" rx="114.5" ry="34.5" fill="#9312E2"/>
<ellipse id="Ellipse 4" cx="183.5" cy="217.5" rx="114.5" ry="34.5" fill="#9312E2"/>
<ellipse id="Ellipse 5" cx="183.5" cy="216.5" rx="114.5" ry="34.5" fill="#9312E2"/>
<ellipse id="Ellipse 6" cx="183.5" cy="216.5" rx="114.5" ry="34.5" fill="#9312E2"/>
<ellipse id="Ellipse 7" cx="183.5" cy="215.5" rx="114.5" ry="34.5" fill="#9312E2"/>
<ellipse id="Ellipse 8" cx="183.5" cy="216.5" rx="114.5" ry="34.5" fill="#9312E2"/>
<ellipse id="Ellipse 9" cx="183.5" cy="215.5" rx="114.5" ry="34.5" fill="#9312E2"/>
<ellipse id="Ellipse 10" cx="183.5" cy="214.5" rx="114.5" ry="34.5" fill="#9312E2"/>
<ellipse id="Ellipse 11" cx="183.5" cy="213.5" rx="114.5" ry="34.5" fill="#9312E2"/>
<ellipse id="Ellipse 12" cx="183.5" cy="213.5" rx="114.5" ry="34.5" fill="#9312E2"/>
<ellipse id="Ellipse 13" cx="183.5" cy="212.5" rx="114.5" ry="34.5" fill="#9312E2"/>
<ellipse id="Ellipse 14" cx="183.5" cy="211.5" rx="114.5" ry="34.5" fill="#9312E2"/>
<ellipse id="Ellipse 15" cx="183.5" cy="210.5" rx="114.5" ry="34.5" fill="#9312E2"/>
<ellipse id="Ellipse 16" cx="183.5" cy="209.5" rx="114.5" ry="34.5" fill="#9312E2"/>
<ellipse id="Ellipse 17" cx="183.5" cy="208.5" rx="114.5" ry="34.5" fill="#9312E2"/>
<ellipse id="Ellipse 18" cx="183.5" cy="208.5" rx="114.5" ry="34.5" fill="#9312E2"/>
<ellipse id="Ellipse 19" cx="183.5" cy="207.5" rx="114.5" ry="34.5" fill="#9312E2"/>
<ellipse id="Ellipse 20" cx="183.5" cy="208.5" rx="114.5" ry="34.5" fill="#9312E2"/>
<ellipse id="Ellipse 21" cx="183.5" cy="207.5" rx="114.5" ry="34.5" fill="#9312E2"/>
<ellipse id="Ellipse 22" cx="183.5" cy="206.5" rx="114.5" ry="34.5" fill="#9312E2"/>
<ellipse id="Ellipse 23" cx="183.5" cy="205.5" rx="114.5" ry="34.5" fill="#9312E2"/>
<ellipse id="Ellipse 24" cx="183.5" cy="205.5" rx="114.5" ry="34.5" fill="#9312E2"/>
<ellipse id="Ellipse 25" cx="183.5" cy="204.5" rx="114.5" ry="34.5" fill="#9312E2"/>
</g>
<g id="Group 2">
<ellipse id="Ellipse 1_2" cx="183.5" cy="204.5" rx="114.5" ry="34.5" fill="#E212CD"/>
<ellipse id="Ellipse 3_2" cx="183.5" cy="203.5" rx="114.5" ry="34.5" fill="#E212CD"/>
<ellipse id="Ellipse 4_2" cx="183.5" cy="202.5" rx="114.5" ry="34.5" fill="#E212CD"/>
<ellipse id="Ellipse 5_2" cx="183.5" cy="201.5" rx="114.5" ry="34.5" fill="#E212CD"/>
<ellipse id="Ellipse 6_2" cx="183.5" cy="201.5" rx="114.5" ry="34.5" fill="#E212CD"/>
<ellipse id="Ellipse 7_2" cx="183.5" cy="200.5" rx="114.5" ry="34.5" fill="#E212CD"/>
<ellipse id="Ellipse 8_2" cx="183.5" cy="201.5" rx="114.5" ry="34.5" fill="#E212CD"/>
<ellipse id="Ellipse 9_2" cx="183.5" cy="200.5" rx="114.5" ry="34.5" fill="#E212CD"/>
<ellipse id="Ellipse 10_2" cx="183.5" cy="199.5" rx="114.5" ry="34.5" fill="#E212CD"/>
<ellipse id="Ellipse 11_2" cx="183.5" cy="198.5" rx="114.5" ry="34.5" fill="#E212CD"/>
<ellipse id="Ellipse 12_2" cx="183.5" cy="198.5" rx="114.5" ry="34.5" fill="#E212CD"/>
<ellipse id="Ellipse 13_2" cx="183.5" cy="197.5" rx="114.5" ry="34.5" fill="#E212CD"/>
<ellipse id="Ellipse 14_2" cx="183.5" cy="196.5" rx="114.5" ry="34.5" fill="#E212CD"/>
<ellipse id="Ellipse 15_2" cx="183.5" cy="195.5" rx="114.5" ry="34.5" fill="#E212CD"/>
<ellipse id="Ellipse 16_2" cx="183.5" cy="194.5" rx="114.5" ry="34.5" fill="#E212CD"/>
<ellipse id="Ellipse 17_2" cx="183.5" cy="193.5" rx="114.5" ry="34.5" fill="#E212CD"/>
<ellipse id="Ellipse 18_2" cx="183.5" cy="193.5" rx="114.5" ry="34.5" fill="#E212CD"/>
<ellipse id="Ellipse 19_2" cx="183.5" cy="192.5" rx="114.5" ry="34.5" fill="#E212CD"/>
<ellipse id="Ellipse 20_2" cx="183.5" cy="193.5" rx="114.5" ry="34.5" fill="#E212CD"/>
<ellipse id="Ellipse 21_2" cx="183.5" cy="192.5" rx="114.5" ry="34.5" fill="#E212CD"/>
<ellipse id="Ellipse 22_2" cx="183.5" cy="191.5" rx="114.5" ry="34.5" fill="#E212CD"/>
<ellipse id="Ellipse 23_2" cx="183.5" cy="190.5" rx="114.5" ry="34.5" fill="#E212CD"/>
<ellipse id="Ellipse 24_2" cx="183.5" cy="190.5" rx="114.5" ry="34.5" fill="#E212CD"/>
<ellipse id="Ellipse 25_2" cx="183.5" cy="189.5" rx="114.5" ry="34.5" fill="#E212CD"/>
</g>
<g id="Group 3">
<ellipse id="Ellipse 1_3" cx="183.5" cy="187.5" rx="114.5" ry="34.5" fill="#9312E2"/>
<ellipse id="Ellipse 3_3" cx="183.5" cy="186.5" rx="114.5" ry="34.5" fill="#9312E2"/>
<ellipse id="Ellipse 4_3" cx="183.5" cy="185.5" rx="114.5" ry="34.5" fill="#9312E2"/>
<ellipse id="Ellipse 5_3" cx="183.5" cy="184.5" rx="114.5" ry="34.5" fill="#9312E2"/>
<ellipse id="Ellipse 6_3" cx="183.5" cy="184.5" rx="114.5" ry="34.5" fill="#9312E2"/>
<ellipse id="Ellipse 7_3" cx="183.5" cy="183.5" rx="114.5" ry="34.5" fill="#9312E2"/>
<ellipse id="Ellipse 8_3" cx="183.5" cy="184.5" rx="114.5" ry="34.5" fill="#9312E2"/>
<ellipse id="Ellipse 9_3" cx="183.5" cy="183.5" rx="114.5" ry="34.5" fill="#9312E2"/>
<ellipse id="Ellipse 10_3" cx="183.5" cy="182.5" rx="114.5" ry="34.5" fill="#9312E2"/>
<ellipse id="Ellipse 11_3" cx="183.5" cy="181.5" rx="114.5" ry="34.5" fill="#9312E2"/>
<ellipse id="Ellipse 12_3" cx="183.5" cy="181.5" rx="114.5" ry="34.5" fill="#9312E2"/>
<ellipse id="Ellipse 13_3" cx="183.5" cy="180.5" rx="114.5" ry="34.5" fill="#9312E2"/>
<ellipse id="Ellipse 14_3" cx="183.5" cy="179.5" rx="114.5" ry="34.5" fill="#9312E2"/>
<ellipse id="Ellipse 15_3" cx="183.5" cy="178.5" rx="114.5" ry="34.5" fill="#9312E2"/>
<ellipse id="Ellipse 16_3" cx="183.5" cy="177.5" rx="114.5" ry="34.5" fill="#9312E2"/>
<ellipse id="Ellipse 17_3" cx="183.5" cy="176.5" rx="114.5" ry="34.5" fill="#9312E2"/>
<ellipse id="Ellipse 18_3" cx="183.5" cy="176.5" rx="114.5" ry="34.5" fill="#9312E2"/>
<ellipse id="Ellipse 19_3" cx="183.5" cy="175.5" rx="114.5" ry="34.5" fill="#9312E2"/>
<ellipse id="Ellipse 20_3" cx="183.5" cy="176.5" rx="114.5" ry="34.5" fill="#9312E2"/>
<ellipse id="Ellipse 21_3" cx="183.5" cy="175.5" rx="114.5" ry="34.5" fill="#9312E2"/>
<ellipse id="Ellipse 22_3" cx="183.5" cy="174.5" rx="114.5" ry="34.5" fill="#9312E2"/>
<ellipse id="Ellipse 23_3" cx="183.5" cy="173.5" rx="114.5" ry="34.5" fill="#9312E2"/>
<ellipse id="Ellipse 24_3" cx="183.5" cy="173.5" rx="114.5" ry="34.5" fill="#9312E2"/>
<ellipse id="Ellipse 25_3" cx="183.5" cy="172.5" rx="114.5" ry="34.5" fill="#9312E2"/>
</g>
<g id="Group 4">
<ellipse id="Ellipse 1_4" cx="183.5" cy="172.5" rx="114.5" ry="34.5" fill="#E212CD"/>
<ellipse id="Ellipse 3_4" cx="183.5" cy="171.5" rx="114.5" ry="34.5" fill="#E212CD"/>
<ellipse id="Ellipse 4_4" cx="183.5" cy="170.5" rx="114.5" ry="34.5" fill="#E212CD"/>
<ellipse id="Ellipse 5_4" cx="183.5" cy="169.5" rx="114.5" ry="34.5" fill="#E212CD"/>
<ellipse id="Ellipse 6_4" cx="183.5" cy="169.5" rx="114.5" ry="34.5" fill="#E212CD"/>
<ellipse id="Ellipse 7_4" cx="183.5" cy="168.5" rx="114.5" ry="34.5" fill="#E212CD"/>
<ellipse id="Ellipse 8_4" cx="183.5" cy="169.5" rx="114.5" ry="34.5" fill="#E212CD"/>
<ellipse id="Ellipse 9_4" cx="183.5" cy="168.5" rx="114.5" ry="34.5" fill="#E212CD"/>
<ellipse id="Ellipse 10_4" cx="183.5" cy="167.5" rx="114.5" ry="34.5" fill="#E212CD"/>
<ellipse id="Ellipse 11_4" cx="183.5" cy="166.5" rx="114.5" ry="34.5" fill="#E212CD"/>
<ellipse id="Ellipse 12_4" cx="183.5" cy="166.5" rx="114.5" ry="34.5" fill="#E212CD"/>
<ellipse id="Ellipse 13_4" cx="183.5" cy="165.5" rx="114.5" ry="34.5" fill="#E212CD"/>
<ellipse id="Ellipse 14_4" cx="183.5" cy="164.5" rx="114.5" ry="34.5" fill="#E212CD"/>
<ellipse id="Ellipse 15_4" cx="183.5" cy="163.5" rx="114.5" ry="34.5" fill="#E212CD"/>
<ellipse id="Ellipse 16_4" cx="183.5" cy="162.5" rx="114.5" ry="34.5" fill="#E212CD"/>
<ellipse id="Ellipse 17_4" cx="183.5" cy="161.5" rx="114.5" ry="34.5" fill="#E212CD"/>
<ellipse id="Ellipse 18_4" cx="183.5" cy="161.5" rx="114.5" ry="34.5" fill="#E212CD"/>
<ellipse id="Ellipse 19_4" cx="183.5" cy="160.5" rx="114.5" ry="34.5" fill="#E212CD"/>
<ellipse id="Ellipse 20_4" cx="183.5" cy="161.5" rx="114.5" ry="34.5" fill="#E212CD"/>
<ellipse id="Ellipse 21_4" cx="183.5" cy="160.5" rx="114.5" ry="34.5" fill="#E212CD"/>
<ellipse id="Ellipse 22_4" cx="183.5" cy="159.5" rx="114.5" ry="34.5" fill="#E212CD"/>
<ellipse id="Ellipse 23_4" cx="183.5" cy="158.5" rx="114.5" ry="34.5" fill="#E212CD"/>
<ellipse id="Ellipse 24_4" cx="183.5" cy="158.5" rx="114.5" ry="34.5" fill="#E212CD"/>
<ellipse id="Ellipse 25_4" cx="183.5" cy="157.5" rx="114.5" ry="34.5" fill="#E212CD"/>
</g>
</g>
<defs>
<filter id="filter0_d_2_3" x="0" y="0" width="368" height="368" filterUnits="userSpaceOnUse" color-interpolation-filters="sRGB">
<feFlood flood-opacity="0" result="BackgroundImageFix"/>
<feColorMatrix in="SourceAlpha" type="matrix" values="0 0 0 0 0 0 0 0 0 0 0 0 0 0 0 0 0 0 127 0" result="hardAlpha"/>
<feOffset dy="4"/>
<feGaussianBlur stdDeviation="2"/>
<feComposite in2="hardAlpha" operator="out"/>
<feColorMatrix type="matrix" values="0 0 0 0 0 0 0 0 0 0 0 0 0 0 0 0 0 0 0.25 0"/>
<feBlend mode="normal" in2="BackgroundImageFix" result="effect1_dropShadow_2_3"/>
<feBlend mode="normal" in="SourceGraphic" in2="effect1_dropShadow_2_3" result="shape"/>
</filter>
</defs>
</svg>
